<?xml version="1.0" standalone="no"?><!DOCTYPE svg PUBLIC "-//W3C//DTD SVG 1.1//EN" "http://www.w3.org/Graphics/SVG/1.1/DTD/svg11.dtd"><svg t="1571101387641" class="icon" viewBox="0 0 1024 1024" version="1.1" xmlns="http://www.w3.org/2000/svg" p-id="11870" xmlns:xlink="http://www.w3.org/1999/xlink" width="200" height="200"><defs><style type="text/css"></style></defs><path d="M749.714286 278.308571V169.691429L378.697143 262.473143a18.285714 18.285714 0 0 1-8.850286-35.474286l393.728-98.450286A18.285714 18.285714 0 0 1 786.285714 146.285714v493.714286a18.285714 18.285714 0 1 1-36.571428 0V315.977143l-254.500572 63.634286a18.285714 18.285714 0 1 1-8.850285-35.474286l263.350857-65.828572z m-438.857143 446.171429V457.142857a18.285714 18.285714 0 1 1 36.571428 0V804.571429a106.057143 106.057143 0 1 1-36.571428-80.091429zM169.910857 195.766857a18.285714 18.285714 0 1 1 25.892572-25.892571l658.285714 658.285714a18.285714 18.285714 0 0 1-25.892572 25.892571l-658.285714-658.285714zM582.217143 735.451429a18.285714 18.285714 0 1 1 33.792-14.006858 69.595429 69.595429 0 0 0 37.632 37.632 18.285714 18.285714 0 0 1-14.006857 33.792 106.166857 106.166857 0 0 1-57.417143-57.417142zM241.371429 874.057143a69.485714 69.485714 0 1 0 0-138.971429 69.485714 69.485714 0 0 0 0 138.971429z" p-id="11871"></path></svg>